<?xml version="1.0" encoding="UTF-8" standalone="no"?><!DOCTYPE svg PUBLIC "-//W3C//DTD SVG 1.1//EN" "http://www.w3.org/Graphics/SVG/1.1/DTD/svg11.dtd"><svg width="100%" height="100%" viewBox="0 0 2501 780" version="1.1" xmlns="http://www.w3.org/2000/svg" xmlns:xlink="http://www.w3.org/1999/xlink" xml:space="preserve" xmlns:serif="http://www.serif.com/" style="fill-rule:evenodd;clip-rule:evenodd;stroke-linejoin:round;stroke-miterlimit:2;background: gray;"><path d="M64.742,542.225c22.366,-78.1 44.725,-155.529 69.091,-233.625l150.859,0c-20.363,78.096 -42.721,155.525 -65.088,233.625c-22.358,78.096 -44.387,155.53 -68.75,233.625l-150.854,0c20.354,-78.095 42.383,-155.529 64.742,-233.625" style="fill:#fff;fill-rule:nonzero;"/><path d="M587.536,417.437c-33.225,0 -69.166,14.5 -80.921,56.446l-17.229,59.304l2.934,0c25.62,-31.608 54.6,-40.042 83.787,-40.042l244.3,0c19.483,0 32.633,-7.187 37.85,-24.312l14.446,-51.396l-285.167,0Zm429.963,32.258c-27.609,96.017 -54.138,135.521 -164.638,135.521l-378.291,0l-3.813,13.671c-10.625,36.613 -0.346,57.488 49.342,57.488l433.233,-0l-33.267,116.654c-60.979,2.804 -118.62,2.804 -180.795,2.804l-263.259,-0c-131.308,-0 -191.483,-58.879 -171.858,-140.179c17.529,-72.579 31.129,-119.821 52.571,-183.167c19.362,-57.396 72.658,-144.846 184.341,-144.846l516.955,0l-40.521,142.054Z" style="fill:#d91b5b;fill-rule:nonzero;"/><path d="M1603.71,305.926c131.513,4.341 171.896,69.421 161.213,124.829c-2.671,14.012 -5.008,19.354 -7.679,27.367l-152.859,-0l0.663,-2.671c8.346,-28.709 -6.008,-35.375 -32.7,-35.375l-272.346,-0l-8.008,21.354c-11.684,30.371 25.025,38.717 63.075,38.717l232.962,-0c142.846,-0 153.188,94.791 140.509,150.187c-15.017,64.413 -78.759,143.521 -212.267,148.192c-38.383,1.333 -227.279,1.333 -270.338,-0c-132.166,-4.009 -201.587,-53.404 -173.887,-149.521c1.675,-6.008 1.675,-6.008 4.008,-12.021l153.525,0l-6.004,20.696c-4.004,14.683 0.329,22.687 19.688,22.687l287.695,0c20.688,0 35.375,-12.008 40.713,-30.704c5.346,-18.683 -3,-29.366 -23.696,-29.366l-248.975,-0c-166.212,-0 -180.562,-94.117 -163.542,-152.855c15.688,-55.404 21.359,-68.091 49.067,-138.841c169.208,-3.342 377.8,-4.009 419.183,-2.675" style="fill:#fff;fill-rule:nonzero;"/><path d="M1841.72,542.225c22.362,-78.1 44.721,-155.529 69.079,-233.625l529.334,0l-35.709,124.821c-93.45,2.004 -159.529,2.004 -259.662,2.004l-117.48,0l-29.37,102.792l2.675,0c26.033,-37.375 46.058,-49.392 85.441,-49.392l40.046,0c92.117,0 144.179,0 236.625,2l-35.375,122.821c-93.45,2.004 -145.512,2.004 -237.621,2.004l-114.15,0l-45.725,160.2l-152.862,0c20.362,-78.095 42.396,-155.529 64.754,-233.625" style="fill:#fff;fill-rule:nonzero;"/><path d="M139.664,210.886c-8.025,-66.384 -16.621,-138.871 -23.287,-203.329l46.754,-0l13.417,155.729l1.05,-0.842c1.65,-5.683 3.645,-12.171 8.966,-19.942l87.725,-134.937l36.95,-0l13.279,155.733l1.05,-0.846c1.605,-5.483 3.68,-11.133 9.509,-19.945l86.971,-134.934l52.254,0c-43.642,64.292 -92.554,135.875 -139.517,203.329l-42.529,0c-5.513,-42.729 -9.467,-94.233 -14.7,-147.841l-1.008,0.771c-0.78,5.029 -2.788,11.312 -7.134,17.508c-26.675,40.325 -56.133,85.096 -87.133,129.558l-42.613,0l-0.004,-0.012Z" style="fill:#d91b5b;fill-rule:nonzero;"/><path d="M552.941,180.19c14.9,-0 22.117,-10.042 25.725,-22.517l11.079,-38.675c3.575,-12.475 2.121,-22.521 -12.779,-22.521l-72.912,0l-17.613,61.2c-3.612,12.475 -2.154,22.517 12.75,22.517l53.75,-0.004Zm-72.746,30.825c-31.129,-0.963 -42.629,-21.596 -37.645,-43.867c4.316,-18.038 17.475,-64.317 29.1,-101.475c48.116,-1.042 92.195,-0.979 124.287,-0.121c30.954,0.988 43.833,20.971 38.096,44.263c-5.288,21.145 -9.338,35.904 -16.129,56.237c-6.596,19.833 -21.963,43.996 -54.779,44.958c-27.646,0.755 -55.638,0.755 -82.925,0l-0.005,0.005Z" style="fill:#fff;fill-rule:nonzero;"/><path d="M640.01,210.898c6.067,-24.108 13.038,-48.512 20.008,-72.62c6.975,-24.4 13.942,-48.509 21.525,-72.617l37.338,-0l-3.896,25.104l0.867,0c6.829,-16.375 18.287,-24.608 33.287,-25.137c16.375,-0.417 41.634,-0.796 69.871,0.041l-8.625,30.221c-16.438,1.454 -30.458,1.454 -44.533,1.454l-28.359,0c-14.091,0 -25.675,6.213 -31.166,25.454l-25.225,88.1l-41.092,0Z" style="fill:#fff;fill-rule:nonzero;"/><path d="M807.93,210.898c9.263,-35.145 19.288,-70.291 29.45,-105.445c10.025,-35.146 20.188,-70.296 30.962,-105.438l40.338,0c-9.271,35.142 -19.433,70.292 -29.458,105.438c-10.163,35.154 -20.184,70.3 -30.963,105.445l-40.333,0l0.004,0Z" style="fill:#fff;fill-rule:nonzero;"/><path d="M979.394,96.942c-14.929,-0 -22.125,9.891 -25.704,22.366l-10.946,38.184c-3.716,12.887 -1.596,22.441 12.817,22.441l51.9,0c11.812,0 19.925,-9.016 23.604,-21.679l17.504,-61.312l-69.175,-0Zm138.121,-96.942c-9.258,35.146 -19.433,70.292 -29.45,105.446c-10.021,35.15 -20.188,70.296 -30.967,105.442l-38.029,-0l3.25,-20.617l-0.871,-0c-7.3,12.187 -14.441,20.025 -30.708,20.692c-19.913,0.758 -35.683,0.758 -55.567,-0.042c-30.041,-1.317 -42.291,-20.675 -36.745,-44.183c4.579,-19.284 8.125,-33.059 16.091,-56.225c7.946,-22.963 24.913,-44.855 56.488,-44.855l86.654,0l18.737,-65.646l41.117,-0.012Z" style="fill:#fff;fill-rule:nonzero;"/><path d="M1203.61,210.902c8.975,-33.983 18.558,-67.679 28.291,-101.662c9.73,-33.992 19.463,-67.684 29.95,-101.671l182.263,-0l-10.088,35.229c-32.304,0.875 -59.416,0.875 -96.529,0.875l-42.658,-0l-17.792,61.658l0.913,0c8.579,-11.35 16.871,-15.233 29.704,-15.233l16.342,-0c34.762,-0 59.833,-0 89.45,0.633l-9.575,33.604c-29.955,0.634 -55.025,0.634 -89.788,0.634l-42.667,-0l-13.833,48.312l43.775,0c37.071,0 64.154,0 95.904,0.875l-10.479,36.742l-183.187,-0l0.004,0.004Z" style="fill:#d91b5b;fill-rule:nonzero;"/><path d="M1572.3,65.248c28.9,0.921 39.325,17.129 30.025,44.721l-39.267,-0l0.712,-2.379c2.688,-9.363 -1.35,-12.45 -11.558,-12.45l-65.242,-0l-3.879,11.779c-2.871,10.037 -0.033,14.821 12.059,14.821l57.766,-0c30.438,-0 45.463,18.087 39.829,44.5c-5.2,24.233 -21.366,43.966 -55.15,45.058c-19.337,0.629 -55.445,0.746 -76.108,-0.125c-35.204,-1.529 -49.696,-18.113 -36.837,-48.963l40.558,0l-1.525,5.305c-2.029,7.22 -0.138,13.612 11.617,13.612l55.429,0c11.412,0 17.904,-6.029 20.412,-14.779c2.542,-9.008 -0.804,-14.696 -12.716,-14.696l-56.959,0c-34.75,0 -47.012,-17.067 -39.204,-42.942c4.1,-13.883 7.104,-23.2 13.363,-43.05c48.345,-1.045 96.058,-1.12 116.675,-0.412" style="fill:#fff;fill-rule:nonzero;"/><path d="M1726.84,179.673c14.671,-0 21.962,-9.888 25.554,-22.363l17.408,-60.854l-71.558,-0c-12.321,-0 -19.654,9.512 -23.167,21.762l-17.596,61.455l69.359,-0Zm-134.042,82.358c8.542,-32.538 17.979,-65.654 27.421,-98.475c9.296,-32.533 18.733,-65.363 28.783,-97.892l37.384,0l-2.559,20.809l0.863,-0c6.629,-12.267 14.954,-19.955 30.971,-20.888c18.062,-0.854 56.916,-0.925 104.333,0.083c-9.492,37.13 -22.517,82.813 -28.479,100.534c-6.654,19.883 -22.392,44.696 -54.846,44.696l-88.108,-0l-14.667,51.129l-41.092,-0l-0.004,0.004Z" style="fill:#fff;fill-rule:nonzero;"/><path d="M1929.01,180.19c14.9,-0 22.116,-10.042 25.725,-22.517l11.079,-38.675c3.575,-12.475 2.121,-22.521 -12.779,-22.521l-72.913,0l-17.612,61.2c-3.613,12.475 -2.155,22.517 12.75,22.517l53.75,-0.004Zm-72.746,30.825c-31.129,-0.963 -42.629,-21.596 -37.646,-43.867c4.317,-18.038 17.475,-64.317 29.1,-101.475c48.117,-1.042 92.196,-0.979 124.287,-0.121c30.955,0.988 43.83,20.971 38.096,44.263c-5.287,21.145 -9.337,35.904 -16.129,56.237c-6.596,19.833 -21.962,43.996 -54.779,44.958c-27.646,0.755 -55.638,0.755 -82.925,0l-0.004,0.005Z" style="fill:#fff;fill-rule:nonzero;"/><path d="M2009.03,210.898c6.07,-24.108 13.037,-48.512 20.008,-72.62c6.975,-24.4 13.942,-48.509 21.525,-72.617l37.342,-0l-3.896,25.104l0.866,0c6.83,-16.375 18.284,-24.608 33.284,-25.137c16.379,-0.417 41.637,-0.796 69.871,0.041l-8.625,30.221c-16.438,1.454 -30.455,1.454 -44.534,1.454l-28.358,0c-14.092,0 -25.675,6.213 -31.163,25.454l-25.225,88.1l-41.095,0Z" style="fill:#fff;fill-rule:nonzero;"/><path d="M2235.58,211.016c-30.704,-0.466 -41.321,-20.5 -36.896,-38.771c2.158,-8.516 10.271,-37.383 21.108,-75.345l-23.329,-0l8.925,-31.234l23.325,0c4.129,-13.583 7.825,-25.812 11.6,-36.096l40.779,0l-10.433,36.1l53.321,0l-8.488,29.78c-15.675,1.45 -28.116,1.45 -43.804,1.45l-19.475,-0l-0.216,0.866c5.675,4.184 6.645,10.079 4.012,19.267l-11.996,42.183c-3.083,10.734 -0.1,20.346 16.746,20.346l30.638,0l-8.805,30.463c-13.991,0.87 -34.795,1.2 -47.012,0.987l-0,0.004Z" style="fill:#fff;fill-rule:nonzero;"/><path d="M2467,65.248c28.9,0.921 39.325,17.129 30.025,44.721l-39.271,-0l0.717,-2.379c2.687,-9.363 -1.35,-12.45 -11.559,-12.45l-65.241,-0l-3.88,11.779c-2.87,10.037 -0.033,14.821 12.055,14.821l57.771,-0c30.437,-0 45.462,18.087 39.829,44.5c-5.2,24.233 -21.367,43.966 -55.15,45.058c-19.338,0.629 -55.446,0.746 -76.109,-0.125c-35.204,-1.529 -49.695,-18.113 -36.837,-48.963l40.558,0l-1.525,5.305c-2.029,7.22 -0.137,13.612 11.617,13.612l55.429,0c11.412,0 17.904,-6.029 20.412,-14.779c2.542,-9.008 -0.804,-14.696 -12.716,-14.696l-56.959,0c-34.75,0 -47.012,-17.067 -39.204,-42.942c4.1,-13.883 7.104,-23.2 13.363,-43.05c48.346,-1.045 96.058,-1.12 116.675,-0.412" style="fill:#fff;fill-rule:nonzero;"/></svg>